# xmcd
#
# Track frame offsets:
#	150
#	10630
#	22513
#	32282
#	42855
#	55818
#	66743
#	76097
#	86506
#	97703
#	110442
#	121756
#	131971
#	143694
#	155426
#	168896
#	178359
#	190681
#	200939
#	212531
#	224040
#	235241
#	247682
#
# Disc length: 3448 seconds
#
# Revision: 0
# Processed by: cddbd v1.5.2PL0 Copyright (c) Steve Scherf et al.
# Submitted via: audiograbber 1.83.01
#
DISCID=2b0d7617
DTITLE=Bill Haley and his Comets - The Essential CD2
DYEAR=2012
DGENRE=Rock`n Roll
TTITLE0=Rock The Joint
TTITLE1=Mambo Rock
TTITLE2=Rockin` Trough The Rye
TTITLE3=Don`t Knock The Rock
TTITLE4=Live It Up
TTITLE5=Blue Comet Blues
TTITLE6=Hide And Seek
TTITLE7=Ida Sweet As Apple Cider
TTITLE8=It`s A Sin
TTITLE9=Rock Lomond
TTITLE10=The Paper Boy (On Main Street USA)
TTITLE11=Tonight`s The Night
TTITLE12=Kook, Line And Sinker
TTITLE13=Lean Jean
TTITLE14=Two Hound Dogs
TTITLE15=Shaky
TTITLE16=Sway With Me
TTITLE17=Sweet Sue, Just You
TTITLE18=Skokiaan (South Africa Song)
TTITLE19=B.B.Betty
TTITLE20=Dinah
TTITLE21=Burn The Candle
TTITLE22=Calling All Comets
EXTD=
EXTT0=
EXTT1=
EXTT2=
EXTT3=
EXTT4=
EXTT5=
EXTT6=
EXTT7=
EXTT8=
EXTT9=
EXTT10=
EXTT11=
EXTT12=
EXTT13=
EXTT14=
EXTT15=
EXTT16=
EXTT17=
EXTT18=
EXTT19=
EXTT20=
EXTT21=
EXTT22=
PLAYORDER=
